# Blender 3.1.0
# www.blender.org
mtllib pipe.mtl
o pipe
v 8.727894 0.072088 -11.542187
v 8.087475 0.072088 -11.334103
v 7.691675 0.072088 -10.789330
v 7.691675 0.072088 -10.115953
v 8.087475 0.072088 -9.571180
v 8.727894 0.072088 -9.363096
v 9.368313 0.072088 -9.571181
v 9.764113 0.072088 -10.115953
v 9.764113 0.072088 -10.789330
v 9.368312 0.072088 -11.334103
v 9.185218 0.080294 -11.082094
v 9.467859 0.080294 -10.693071
v 9.467859 0.080294 -10.212212
v 9.185218 0.080294 -9.823189
v 8.727894 0.080294 -9.674596
v 8.270570 0.080294 -9.823189
v 7.987928 0.080294 -10.212213
v 7.987928 0.080294 -10.693071
v 8.270570 0.080294 -11.082094
v 8.727894 0.080294 -11.230688
v 8.727894 2.011750 -11.542187
v 8.087475 2.011750 -11.334103
v 7.691675 2.011750 -10.789330
v 7.691675 2.011750 -10.115953
v 8.087475 2.011750 -9.571180
v 8.727894 2.011750 -9.363096
v 9.368313 2.011750 -9.571181
v 9.764113 2.011750 -10.115953
v 9.764113 2.011750 -10.789330
v 9.368312 2.011750 -11.334103
v 8.727894 2.011750 -11.763017
v 7.957675 2.011750 -11.512757
v 7.481653 2.011750 -10.857570
v 7.481653 2.011750 -10.047713
v 7.957675 2.011750 -9.392526
v 8.727894 2.011750 -9.142266
v 9.498114 2.011750 -9.392526
v 9.974135 2.011750 -10.047713
v 9.974135 2.011750 -10.857571
v 9.498113 2.011750 -11.512758
v 8.727894 2.769399 -11.763017
v 7.957675 2.769399 -11.512757
v 7.481653 2.769399 -10.857570
v 7.481653 2.769399 -10.047713
v 7.957675 2.769399 -9.392526
v 8.727894 2.769399 -9.142266
v 9.498114 2.769399 -9.392526
v 9.974135 2.769399 -10.047713
v 9.974135 2.769399 -10.857571
v 9.498113 2.769399 -11.512758
v 8.727894 2.769399 -11.230688
v 8.270570 2.769399 -11.082094
v 7.987928 2.769399 -10.693071
v 7.987928 2.769399 -10.212213
v 8.270570 2.769399 -9.823189
v 8.727894 2.769399 -9.674596
v 9.185218 2.769399 -9.823189
v 9.467859 2.769399 -10.212212
v 9.467859 2.769399 -10.693071
v 9.185218 2.769399 -11.082094
vn 0.5878 -0.0000 0.8090
vn -0.0000 -0.0000 1.0000
vn 0.9511 -0.0000 0.3090
vn -0.5878 -0.0000 0.8090
vn 0.5878 -0.0000 -0.8090
vn 0.9511 -0.0000 -0.3090
vn -0.0000 -0.0000 -1.0000
vn -0.5878 -0.0000 -0.8090
vn -0.9511 -0.0000 -0.3090
vn -0.9511 -0.0000 0.3090
vn -0.0000 1.0000 -0.0000
vn -0.0000 -1.0000 -0.0000
vn 0.0250 0.9997 -0.0081
vn 0.0155 0.9997 -0.0213
vn 0.0250 0.9997 0.0081
vn 0.0155 0.9997 0.0213
vn -0.0000 0.9997 0.0263
vn -0.0155 0.9997 0.0213
vn -0.0250 0.9997 0.0081
vn -0.0250 0.9997 -0.0081
vn -0.0155 0.9997 -0.0213
vn -0.0000 0.9997 -0.0263
vt 0.000000 0.000000
vt 0.000000 0.000000
vt 0.000000 0.000000
vt 0.000000 0.000000
vt 0.000000 0.000000
vt 0.000000 0.000000
vt 0.000000 0.000000
vt 0.000000 0.000000
vt 0.000000 0.000000
vt 0.000000 0.000000
vt 0.000000 0.000000
vt 0.000000 0.000000
vt 0.000000 0.000000
vt 0.000000 0.000000
vt 0.000000 0.000000
vt 0.000000 0.000000
vt 0.000000 0.000000
vt 0.000000 0.000000
vt 0.000000 0.000000
vt 0.000000 0.000000
vt 0.000000 0.000000
vt 0.000000 0.000000
vt 0.000000 0.000000
vt 0.000000 0.000000
vt 0.000000 0.000000
vt 0.000000 0.000000
vt 0.000000 0.000000
vt 0.000000 0.000000
vt 0.000000 0.000000
vt 0.000000 0.000000
vt 0.000000 0.000000
vt 0.000000 0.000000
vt 0.000000 0.000000
vt 0.000000 0.000000
vt 0.000000 0.000000
vt 0.000000 0.000000
vt 0.000000 0.000000
vt 0.000000 0.000000
vt 0.000000 0.000000
vt 0.000000 0.000000
vt 0.000000 0.000000
vt 0.000000 0.000000
vt 0.000000 0.000000
vt 0.000000 0.000000
vt 0.000000 0.000000
vt 0.000000 0.000000
vt 0.000000 0.000000
vt 0.000000 0.000000
vt 0.000000 0.000000
vt 0.000000 0.000000
vt 0.000000 0.000000
vt 0.000000 0.000000
vt 0.000000 0.000000
vt 0.000000 0.000000
vt 0.000000 0.000000
vt 0.000000 0.000000
vt 0.000000 0.000000
vt 0.000000 0.000000
vt 0.000000 0.000000
vt 0.000000 0.000000
s 1
usemtl Material.007
f 57/57/1 56/56/2 15/15/2 14/14/1
f 58/58/3 57/57/1 14/14/1 13/13/3
f 56/56/2 55/55/4 16/16/4 15/15/2
f 60/60/5 59/59/6 12/12/6 11/11/5
f 51/51/7 60/60/5 11/11/5 20/20/7
f 52/52/8 51/51/7 20/20/7 19/19/8
f 53/53/9 52/52/8 19/19/8 18/18/9
f 54/54/10 53/53/9 18/18/9 17/17/10
f 55/55/4 54/54/10 17/17/10 16/16/4
f 59/59/6 58/58/3 13/13/3 12/12/6
f 8/8/9 7/7/8 27/27/8 28/28/9
f 5/5/5 4/4/6 24/24/6 25/25/5
f 2/2/1 1/1/2 21/21/2 22/22/1
f 9/9/10 8/8/9 28/28/9 29/29/10
f 6/6/7 5/5/5 25/25/5 26/26/7
f 3/3/3 2/2/1 22/22/1 23/23/3
f 10/10/4 9/9/10 29/29/10 30/30/4
f 7/7/8 6/6/7 26/26/7 27/27/8
f 4/4/6 3/3/3 23/23/3 24/24/6
f 1/1/2 10/10/4 30/30/4 21/21/2
f 22/22/11 21/21/11 31/31/11 32/32/11
f 29/29/11 28/28/11 38/38/11 39/39/11
f 26/26/11 25/25/11 35/35/11 36/36/11
f 23/23/11 22/22/11 32/32/11 33/33/11
f 30/30/11 29/29/11 39/39/11 40/40/11
f 27/27/11 26/26/11 36/36/11 37/37/11
f 24/24/11 23/23/11 33/33/11 34/34/11
f 21/21/11 30/30/11 40/40/11 31/31/11
f 28/28/11 27/27/11 37/37/11 38/38/11
f 25/25/11 24/24/11 34/34/11 35/35/11
f 39/39/10 38/38/9 48/48/9 49/49/10
f 36/36/7 35/35/5 45/45/5 46/46/7
f 33/33/3 32/32/1 42/42/1 43/43/3
f 40/40/4 39/39/10 49/49/10 50/50/4
f 37/37/8 36/36/7 46/46/7 47/47/8
f 34/34/6 33/33/3 43/43/3 44/44/6
f 31/31/2 40/40/4 50/50/4 41/41/2
f 38/38/9 37/37/8 47/47/8 48/48/9
f 35/35/5 34/34/6 44/44/6 45/45/5
f 32/32/1 31/31/2 41/41/2 42/42/1
f 46/46/12 45/45/12 55/55/12 56/56/12
f 43/43/12 42/42/12 52/52/12 53/53/12
f 50/50/12 49/49/12 59/59/12 60/60/12
f 47/47/12 46/46/12 56/56/12 57/57/12
f 44/44/12 43/43/12 53/53/12 54/54/12
f 41/41/12 50/50/12 60/60/12 51/51/12
f 48/48/12 47/47/12 57/57/12 58/58/12
f 45/45/12 44/44/12 54/54/12 55/55/12
f 42/42/12 41/41/12 51/51/12 52/52/12
f 49/49/12 48/48/12 58/58/12 59/59/12
f 9/9/13 10/10/14 11/11/14 12/12/13
f 8/8/15 9/9/13 12/12/13 13/13/15
f 7/7/16 8/8/15 13/13/15 14/14/16
f 6/6/17 7/7/16 14/14/16 15/15/17
f 5/5/18 6/6/17 15/15/17 16/16/18
f 4/4/19 5/5/18 16/16/18 17/17/19
f 3/3/20 4/4/19 17/17/19 18/18/20
f 2/2/21 3/3/20 18/18/20 19/19/21
f 1/1/22 2/2/21 19/19/21 20/20/22
f 10/10/14 1/1/22 20/20/22 11/11/14
